<svg xmlns="http://www.w3.org/2000/svg" viewBox="0 0 36 18" width="360" height="180" shape-rendering="crispEdges">
  <style>
    .o { fill: #d97757; }
    .d { fill: #b5604a; }
    .e { fill: #111111; }
    .w { fill: #ffffff; }
    .g { fill: #222222; }
    .r { fill: #888888; }
    .wl { fill: #4a4a4a; }
    .rf { fill: #aaaaaa; }
  </style>

  <!-- === HOUSE (right, large — dominant element) === -->

  <!-- Chimney -->
  <rect class="r" x="30" y="1" width="2" height="3"/>

  <!-- Roof triangle -->
  <rect class="rf" x="27" y="3" width="2" height="1"/>
  <rect class="rf" x="26" y="4" width="4" height="1"/>
  <rect class="rf" x="25" y="5" width="6" height="1"/>
  <rect class="rf" x="24" y="6" width="8" height="1"/>
  <rect class="rf" x="23" y="7" width="10" height="1"/>
  <rect class="rf" x="22" y="8" width="12" height="1"/>
  <!-- Eaves -->
  <rect class="r" x="21" y="9" width="14" height="1"/>

  <!-- Walls -->
  <rect class="wl" x="22" y="10" width="12" height="5"/>
  <rect class="r" x="22" y="10" width="1" height="5"/>
  <rect class="r" x="33" y="10" width="1" height="5"/>
  <rect class="r" x="22" y="10" width="12" height="1"/>

  <!-- Windows (2x2, bright white) -->
  <rect class="w" x="23" y="11" width="2" height="2"/>
  <rect class="w" x="31" y="11" width="2" height="2"/>

  <!-- Door (open, dark) -->
  <rect class="e" x="27" y="13" width="2" height="2"/>
  <rect class="r" x="28" y="14" width="1" height="1"/>


  <!-- === CLAWD (left, small cute crab) === -->

  <!-- Left pincer (V-shape) -->
  <rect class="o" x="2" y="7" width="1" height="1"/>
  <rect class="o" x="4" y="7" width="1" height="1"/>
  <rect class="o" x="3" y="8" width="1" height="1"/>
  <!-- Left arm -->
  <rect class="o" x="4" y="9" width="1" height="1"/>
  <rect class="o" x="5" y="9" width="1" height="1"/>

  <!-- Right pincer (V-shape) -->
  <rect class="o" x="13" y="7" width="1" height="1"/>
  <rect class="o" x="15" y="7" width="1" height="1"/>
  <rect class="o" x="14" y="8" width="1" height="1"/>
  <!-- Right arm -->
  <rect class="o" x="12" y="9" width="1" height="1"/>
  <rect class="o" x="13" y="9" width="1" height="1"/>

  <!-- Eye stalks -->
  <rect class="o" x="7" y="8" width="1" height="1"/>
  <rect class="o" x="10" y="8" width="1" height="1"/>

  <!-- Eyes (bright white) -->
  <rect class="w" x="7" y="9" width="1" height="1"/>
  <rect class="w" x="10" y="9" width="1" height="1"/>

  <!-- Head -->
  <rect class="o" x="6" y="10" width="6" height="1"/>

  <!-- Body (solid orange, widest) -->
  <rect class="o" x="5" y="11" width="8" height="1"/>

  <!-- Body with belly -->
  <rect class="o" x="5" y="12" width="8" height="1"/>
  <rect class="d" x="6" y="12" width="6" height="1"/>

  <!-- Body taper -->
  <rect class="o" x="6" y="13" width="6" height="1"/>

  <!-- Legs (2 per side, clean diagonal) -->
  <rect class="o" x="4" y="12" width="1" height="1"/>
  <rect class="o" x="3" y="13" width="1" height="1"/>
  <rect class="o" x="4" y="13" width="1" height="1"/>

  <rect class="o" x="13" y="12" width="1" height="1"/>
  <rect class="o" x="13" y="13" width="1" height="1"/>
  <rect class="o" x="14" y="13" width="1" height="1"/>

  <!-- Feet -->
  <rect class="o" x="2" y="14" width="1" height="1"/>
  <rect class="o" x="5" y="14" width="1" height="1"/>
  <rect class="o" x="12" y="14" width="1" height="1"/>
  <rect class="o" x="15" y="14" width="1" height="1"/>


  <!-- Ground -->
  <rect class="g" x="0" y="15" width="36" height="1"/>
</svg>
