<svg xmlns="http://www.w3.org/2000/svg" viewBox="0 0 36 18" width="360" height="180" shape-rendering="crispEdges">
  <style>
    .o { fill: #d97757; }
    .d { fill: #b5604a; }
    .e { fill: #111111; }
    .w { fill: #ffffff; }
    .g { fill: #222222; }
    .r { fill: #888888; }
    .wl { fill: #4a4a4a; }
    .rf { fill: #aaaaaa; }
    .bl { fill: #e8836a; }
    .pu { fill: #1a1a2e; }
  </style>

  <!-- === HOUSE (right, large) === -->

  <!-- Chimney -->
  <rect class="r" x="30" y="1" width="2" height="3"/>

  <!-- Roof triangle -->
  <rect class="rf" x="27" y="3" width="2" height="1"/>
  <rect class="rf" x="26" y="4" width="4" height="1"/>
  <rect class="rf" x="25" y="5" width="6" height="1"/>
  <rect class="rf" x="24" y="6" width="8" height="1"/>
  <rect class="rf" x="23" y="7" width="10" height="1"/>
  <rect class="rf" x="22" y="8" width="12" height="1"/>
  <!-- Eaves -->
  <rect class="r" x="21" y="9" width="14" height="1"/>

  <!-- Walls -->
  <rect class="wl" x="22" y="10" width="12" height="5"/>
  <rect class="r" x="22" y="10" width="1" height="5"/>
  <rect class="r" x="33" y="10" width="1" height="5"/>
  <rect class="r" x="22" y="10" width="12" height="1"/>

  <!-- Windows (2x2) -->
  <rect class="w" x="23" y="11" width="2" height="2"/>
  <rect class="w" x="31" y="11" width="2" height="2"/>

  <!-- Door -->
  <rect class="e" x="27" y="13" width="2" height="2"/>
  <rect class="r" x="28" y="14" width="1" height="1"/>


  <!-- === CLAWD (left, cute crab) === -->

  <!-- Stubby left claw (rounded nub, not threatening V) -->
  <rect class="o" x="3" y="8" width="2" height="1"/>
  <rect class="o" x="3" y="9" width="2" height="1"/>
  <rect class="o" x="5" y="9" width="1" height="1"/>

  <!-- Stubby right claw (rounded nub) -->
  <rect class="o" x="14" y="8" width="2" height="1"/>
  <rect class="o" x="14" y="9" width="2" height="1"/>
  <rect class="o" x="13" y="9" width="1" height="1"/>

  <!-- Eye stalks (thicker) -->
  <rect class="o" x="7" y="7" width="1" height="1"/>
  <rect class="o" x="11" y="7" width="1" height="1"/>

  <!-- Big round eyes (2x2 white with pupil = cute!) -->
  <rect class="w" x="7" y="8" width="2" height="2"/>
  <rect class="w" x="10" y="8" width="2" height="2"/>
  <!-- Pupils (bottom-right for looking toward house) -->
  <rect class="pu" x="8" y="9" width="1" height="1"/>
  <rect class="pu" x="11" y="9" width="1" height="1"/>

  <!-- Head / face (round, 8px) -->
  <rect class="o" x="6" y="10" width="7" height="1"/>

  <!-- Blush cheeks -->
  <rect class="bl" x="6" y="10" width="1" height="1"/>
  <rect class="bl" x="12" y="10" width="1" height="1"/>

  <!-- Smile (tiny 1px) -->
  <rect class="d" x="9" y="10" width="1" height="1"/>

  <!-- Body (round, widest) -->
  <rect class="o" x="5" y="11" width="9" height="1"/>

  <!-- Body middle -->
  <rect class="o" x="5" y="12" width="9" height="1"/>
  <rect class="d" x="6" y="12" width="7" height="1"/>

  <!-- Body bottom (tapered) -->
  <rect class="o" x="6" y="13" width="7" height="1"/>

  <!-- Short stubby legs (2 per side) -->
  <rect class="o" x="4" y="13" width="1" height="1"/>
  <rect class="o" x="3" y="14" width="1" height="1"/>
  <rect class="o" x="5" y="14" width="1" height="1"/>

  <rect class="o" x="14" y="13" width="1" height="1"/>
  <rect class="o" x="13" y="14" width="1" height="1"/>
  <rect class="o" x="15" y="14" width="1" height="1"/>


  <!-- Ground -->
  <rect class="g" x="0" y="15" width="36" height="1"/>
</svg>
